<svg version="1.1" viewBox="0.000000 0.000000 240.000000 215.000000" xmlns="http://www.w3.org/2000/svg" xmlns:xlink="http://www.w3.org/1999/xlink" stroke-linejoin="round" stroke-miterlimit="1.414210" fill-rule="evenodd" clip-rule="evenodd" overflow="hidden"><g id="AF-Symbol-No-Text-Artboard" transform="matrix(0.959586,0.000000,0.000000,1.006090,-49.604800,0.000000)"><rect x="51.694000" y="0.000000" width="249.617000" height="212.855000" fill="none"/><g transform="matrix(1.042120,0.000000,0.000000,0.993948,-11.233400,0.000000)"><path d=" M 148.179993 156.529999 L 125.362000 173.106003 L 153.145996 193.294998 L 161.858994 166.473007 L 148.179993 156.529999 Z" fill="#00529B" fill-rule="nonzero"/><path d=" M 157.251007 196.281006 L 180.067993 212.854996 L 202.871994 196.281006 L 180.067993 179.697998 L 157.251007 196.281006 Z" fill="#00529B" fill-rule="nonzero"/><path d=" M 168.776993 145.057999 L 85.125999 84.275002 L 104.653000 124.911003 L 132.395996 145.057999 L 168.776993 145.057999 Z" fill="#00529B" fill-rule="nonzero"/><path d=" M 177.531998 118.259003 L 60.659000 33.340000 L 80.183998 73.984001 L 170.572998 139.656998 L 177.531998 118.259003 Z" fill="#00529B" fill-rule="nonzero"/><path d=" M 77.227997 0.000000 L 63.448002 28.674000 L 105.793999 59.438999 L 77.227997 0.000000 Z" fill="#00529B" fill-rule="nonzero"/><path d=" M 198.268005 166.473007 L 206.988007 193.294998 L 234.761993 173.106003 L 211.942001 156.529999 L 198.268005 166.473007 Z" fill="#00529B" fill-rule="nonzero"/><path d=" M 227.731995 145.057999 L 255.475006 124.911003 L 274.993988 84.275002 L 191.352005 145.057999 L 227.731995 145.057999 Z" fill="#00529B" fill-rule="nonzero"/><path d=" M 182.600998 118.259003 L 189.550003 139.656998 L 279.940002 73.984001 L 299.470001 33.340000 L 182.600998 118.259003 Z" fill="#00529B" fill-rule="nonzero"/><path d=" M 282.899994 0.000000 L 254.326004 59.438999 L 296.678986 28.674000 L 282.899994 0.000000 Z" fill="#00529B" fill-rule="nonzero"/><path d=" M 167.391998 160.529007 C 167.391998 153.531998 173.067993 147.852005 180.074005 147.852005 C 187.063995 147.852005 192.751007 153.531998 192.751007 160.529007 C 192.751007 167.533997 187.063995 173.209000 180.074005 173.209000 C 173.067993 173.207993 167.391998 167.533997 167.391998 160.529007 Z" fill="#00529B" fill-rule="nonzero"/></g></g></svg>